<?xml version="1.0" encoding="UTF-8" standalone="no"?>
<!DOCTYPE svg PUBLIC "-//W3C//DTD SVG 1.1//EN" "http://www.w3.org/Graphics/SVG/1.1/DTD/svg11.dtd">
<svg width="100%" height="100%" viewBox="0 0 167 77" version="1.1" xmlns="http://www.w3.org/2000/svg" xmlns:xlink="http://www.w3.org/1999/xlink" xml:space="preserve" xmlns:serif="http://www.serif.com/" style="fill-rule:evenodd;clip-rule:evenodd;stroke-linejoin:round;stroke-miterlimit:1.41421;">
    <g transform="matrix(1,0,0,1,-15.9,-10.9)">
        <path d="M102.9,25.2L101.3,25.2L101.3,40.7L102.9,40.7L102.9,42.5L99,42.5L99,23.4L102.9,23.4L102.9,25.2Z" style="fill-rule:nonzero;"/>
        <path d="M108.8,39.6C107.3,39.6 106.1,39.1 105.2,38.2C104.3,37.3 103.8,36 103.8,34.5L103.8,34.2C103.8,33.2 104,32.2 104.4,31.4C104.8,30.6 105.4,30 106.1,29.5C106.8,29 107.6,28.8 108.5,28.8C109.9,28.8 111,29.2 111.8,30.1C112.6,31 113,32.3 113,33.9L113,35L106.3,35C106.4,35.9 106.7,36.5 107.2,37C107.7,37.5 108.3,37.7 109.1,37.7C110.2,37.7 111,37.3 111.7,36.4L113,37.6C112.6,38.2 112,38.7 111.3,39C110.5,39.4 109.7,39.6 108.8,39.6ZM108.5,30.7C107.9,30.7 107.3,30.9 107,31.4C106.6,31.8 106.4,32.5 106.3,33.3L110.7,33.3L110.7,33.1C110.6,32.3 110.4,31.7 110.1,31.3C109.7,30.9 109.2,30.7 108.5,30.7Z" style="fill-rule:nonzero;"/>
        <path d="M116.9,29.1L117,30.2C117.7,29.4 118.7,28.9 120,28.9C121.4,28.9 122.3,29.4 122.8,30.5C123.6,29.4 124.6,28.9 126,28.9C127.1,28.9 128,29.2 128.5,29.8C129.1,30.4 129.3,31.4 129.4,32.6L129.4,39.4L127.1,39.4L127.1,32.7C127.1,32 127,31.6 126.7,31.3C126.4,31 125.9,30.8 125.3,30.8C124.8,30.8 124.3,30.9 124,31.2C123.7,31.5 123.4,31.9 123.3,32.3L123.3,39.4L121,39.4L121,32.6C121,31.4 120.3,30.8 119.1,30.8C118.2,30.8 117.5,31.2 117.1,31.9L117.1,39.4L114.8,39.4L114.8,29.1L116.9,29.1Z" style="fill-rule:nonzero;"/>
        <path d="M140.8,34.3C140.8,35.9 140.4,37.2 139.7,38.1C139,39 138,39.5 136.7,39.5C135.5,39.5 134.5,39.1 133.9,38.2L133.8,39.3L131.7,39.3L131.7,24.7L134,24.7L134,30C134.7,29.2 135.6,28.8 136.7,28.8C138,28.8 138.9,29.3 139.7,30.2C140.4,31.1 140.8,32.4 140.8,34.1L140.8,34.3ZM138.5,34.1C138.5,33 138.3,32.1 137.9,31.6C137.5,31 136.9,30.8 136.2,30.8C135.2,30.8 134.5,31.2 134.1,32.1L134.1,36.4C134.5,37.3 135.2,37.7 136.2,37.7C136.9,37.7 137.5,37.4 137.9,36.9C138.3,36.4 138.5,35.5 138.5,34.4L138.5,34.1Z" style="fill-rule:nonzero;"/>
        <path d="M147.3,39.6C145.8,39.6 144.6,39.1 143.7,38.2C142.8,37.3 142.3,36 142.3,34.5L142.3,34.2C142.3,33.2 142.5,32.2 142.9,31.4C143.3,30.6 143.9,30 144.6,29.5C145.3,29 146.1,28.8 147,28.8C148.4,28.8 149.5,29.2 150.3,30.1C151.1,31 151.5,32.3 151.5,33.9L151.5,35L144.8,35C144.9,35.9 145.2,36.5 145.7,37C146.2,37.5 146.8,37.7 147.6,37.7C148.7,37.7 149.5,37.3 150.2,36.4L151.5,37.6C151.1,38.2 150.5,38.7 149.8,39C149,39.4 148.2,39.6 147.3,39.6ZM147.1,30.7C146.5,30.7 145.9,30.9 145.6,31.4C145.2,31.8 145,32.5 144.9,33.3L149.3,33.3L149.3,33.1C149.2,32.3 149,31.7 148.7,31.3C148.2,30.9 147.7,30.7 147.1,30.7Z" style="fill-rule:nonzero;"/>
        <path d="M158.7,31.2C158.4,31.1 158.1,31.1 157.8,31.1C156.7,31.1 156,31.5 155.7,32.3L155.7,39.4L153.4,39.4L153.4,29.1L155.6,29.1L155.7,30.3C156.3,29.4 157,29 158,29C158.3,29 158.6,29 158.8,29.1L158.7,31.2Z" style="fill-rule:nonzero;"/>
        <path d="M101.8,45.7L101.8,48.2L103.6,48.2L103.6,49.9L101.8,49.9L101.8,55.7C101.8,56.1 101.9,56.4 102,56.6C102.2,56.8 102.4,56.9 102.8,56.9C103.1,56.9 103.3,56.9 103.6,56.8L103.6,58.6C103.1,58.7 102.6,58.8 102.1,58.8C100.3,58.8 99.4,57.8 99.4,55.9L99.4,50L97.7,50L97.7,48.3L99.4,48.3L99.4,45.8L101.8,45.8L101.8,45.7Z" style="fill-rule:nonzero;"/>
        <path d="M110,58.7C108.5,58.7 107.3,58.2 106.4,57.3C105.5,56.4 105,55.1 105,53.6L105,53.3C105,52.3 105.2,51.3 105.6,50.5C106,49.7 106.6,49.1 107.3,48.6C108,48.1 108.8,47.9 109.7,47.9C111.1,47.9 112.2,48.3 113,49.2C113.8,50.1 114.2,51.4 114.2,53L114.2,53.9L107.5,53.9C107.6,54.8 107.9,55.4 108.4,55.9C108.9,56.4 109.5,56.6 110.3,56.6C111.4,56.6 112.2,56.2 112.9,55.3L114.2,56.5C113.8,57.1 113.2,57.6 112.5,57.9C111.6,58.5 110.8,58.7 110,58.7ZM109.7,49.8C109.1,49.8 108.5,50 108.2,50.5C107.8,50.9 107.6,51.6 107.5,52.4L111.9,52.4L111.9,52.2C111.8,51.4 111.6,50.8 111.3,50.4C110.8,50 110.3,49.8 109.7,49.8Z" style="fill-rule:nonzero;"/>
        <path d="M121.7,55.7C121.7,55.3 121.5,55 121.2,54.8C120.9,54.6 120.3,54.4 119.5,54.2C118.7,54 118.1,53.8 117.5,53.6C116.3,53 115.8,52.2 115.8,51.2C115.8,50.3 116.2,49.6 116.9,49C117.7,48.4 118.6,48.1 119.8,48.1C121,48.1 122,48.4 122.8,49C123.6,49.6 123.9,50.4 123.9,51.4L121.6,51.4C121.6,51 121.4,50.6 121.1,50.3C120.8,50 120.3,49.9 119.8,49.9C119.3,49.9 118.9,50 118.6,50.3C118.3,50.5 118.1,50.9 118.1,51.2C118.1,51.6 118.2,51.8 118.5,52C118.8,52.2 119.4,52.4 120.3,52.6C121.2,52.8 121.9,53 122.4,53.3C122.9,53.6 123.3,53.9 123.6,54.3C123.9,54.7 124,55.2 124,55.7C124,56.6 123.6,57.4 122.8,58C122,58.6 121,58.9 119.8,58.9C119,58.9 118.2,58.7 117.5,58.4C116.8,58.1 116.3,57.7 116,57.1C115.6,56.6 115.4,56 115.4,55.4L117.7,55.4C117.7,55.9 117.9,56.4 118.3,56.7C118.7,57 119.2,57.1 119.8,57.1C120.4,57.1 120.9,57 121.2,56.8C121.5,56.4 121.7,56.1 121.7,55.7Z" style="fill-rule:nonzero;"/>
        <path d="M128.9,45.7L128.9,48.2L130.7,48.2L130.7,49.9L128.9,49.9L128.9,55.7C128.9,56.1 129,56.4 129.1,56.6C129.3,56.8 129.5,56.9 129.9,56.9C130.2,56.9 130.4,56.9 130.7,56.8L130.7,58.6C130.2,58.7 129.7,58.8 129.2,58.8C127.4,58.8 126.5,57.8 126.5,55.9L126.5,50L124.8,50L124.8,48.3L126.5,48.3L126.5,45.8L128.9,45.8L128.9,45.7Z" style="fill-rule:nonzero;"/>
        <path d="M104.7,72.9C104.7,72.5 104.5,72.2 104.2,72C103.9,71.8 103.3,71.6 102.5,71.4C101.7,71.2 101.1,71 100.5,70.8C99.3,70.2 98.8,69.4 98.8,68.4C98.8,67.5 99.2,66.8 99.9,66.2C100.7,65.6 101.6,65.3 102.8,65.3C104,65.3 105,65.6 105.8,66.2C106.6,66.8 106.9,67.6 106.9,68.6L104.6,68.6C104.6,68.2 104.4,67.8 104.1,67.5C103.8,67.2 103.3,67.1 102.8,67.1C102.3,67.1 101.9,67.2 101.6,67.5C101.3,67.7 101.1,68.1 101.1,68.4C101.1,68.8 101.2,69 101.5,69.2C101.8,69.4 102.4,69.6 103.3,69.8C104.2,70 104.9,70.2 105.4,70.5C105.9,70.8 106.3,71.1 106.6,71.5C106.9,71.9 107,72.4 107,72.9C107,73.8 106.6,74.6 105.8,75.2C105,75.8 104,76.1 102.8,76.1C102,76.1 101.2,75.9 100.5,75.6C99.8,75.3 99.3,74.9 99,74.3C98.7,73.7 98.4,73.2 98.4,72.6L100.7,72.6C100.7,73.1 100.9,73.6 101.3,73.9C101.7,74.2 102.2,74.3 102.8,74.3C103.4,74.3 103.9,74.2 104.2,74C104.6,73.6 104.7,73.3 104.7,72.9Z" style="fill-rule:nonzero;"/>
        <path d="M113.6,75.9C112.1,75.9 110.9,75.4 110,74.5C109.1,73.6 108.6,72.3 108.6,70.8L108.6,70.5C108.6,69.5 108.8,68.5 109.2,67.7C109.6,66.9 110.2,66.3 110.9,65.8C111.6,65.3 112.4,65.1 113.3,65.1C114.7,65.1 115.8,65.5 116.6,66.4C117.4,67.3 117.8,68.6 117.8,70.2L117.8,71.1L111,71.1C111.1,72 111.4,72.6 111.9,73.1C112.4,73.6 113,73.8 113.8,73.8C114.9,73.8 115.7,73.4 116.4,72.5L117.7,73.7C117.3,74.3 116.7,74.8 116,75.1C115.2,75.8 114.4,75.9 113.6,75.9ZM113.3,67.1C112.7,67.1 112.1,67.3 111.8,67.8C111.4,68.2 111.2,68.9 111.1,69.7L115.5,69.7L115.5,69.5C115.4,68.7 115.2,68.1 114.9,67.7C114.4,67.3 113.9,67.1 113.3,67.1Z" style="fill-rule:nonzero;"/>
        <rect x="119.7" y="61.1" width="2.3" height="14.6" style="fill-rule:nonzero;"/>
        <path d="M129,75.9C127.5,75.9 126.3,75.4 125.4,74.5C124.5,73.6 124,72.3 124,70.8L124,70.5C124,69.5 124.2,68.5 124.6,67.7C125,66.9 125.6,66.3 126.3,65.8C127,65.3 127.8,65.1 128.7,65.1C130.1,65.1 131.2,65.5 132,66.4C132.8,67.3 133.2,68.6 133.2,70.2L133.2,71.1L126.5,71.1C126.6,72 126.9,72.6 127.4,73.1C127.9,73.6 128.5,73.8 129.3,73.8C130.4,73.8 131.2,73.4 131.9,72.5L133,74C132.6,74.6 132,75.1 131.3,75.4C130.7,75.8 129.9,75.9 129,75.9ZM128.8,67.1C128.2,67.1 127.6,67.3 127.3,67.8C126.9,68.2 126.7,68.9 126.6,69.7L131,69.7L131,69.5C130.9,68.7 130.7,68.1 130.4,67.7C129.9,67.3 129.4,67.1 128.8,67.1Z" style="fill-rule:nonzero;"/>
        <path d="M139.2,74.1C139.8,74.1 140.3,73.9 140.6,73.6C141,73.3 141.2,72.8 141.2,72.3L143.4,72.3C143.4,72.9 143.2,73.5 142.8,74.1C142.4,74.7 141.9,75.1 141.3,75.4C140.7,75.7 140,75.9 139.2,75.9C137.8,75.9 136.6,75.4 135.8,74.5C135,73.6 134.5,72.3 134.5,70.6L134.5,70.4C134.5,68.8 134.9,67.6 135.8,66.6C136.6,65.7 137.8,65.2 139.2,65.2C140.4,65.2 141.4,65.6 142.2,66.3C143,67 143.4,68 143.4,69.1L141.2,69.1C141.2,68.5 141,68 140.6,67.6C140.2,67.2 139.7,67 139.2,67C138.4,67 137.9,67.3 137.5,67.8C137.1,68.3 136.9,69.2 136.9,70.3L136.9,70.7C136.9,71.8 137.1,72.7 137.5,73.2C137.9,73.8 138.5,74.1 139.2,74.1Z" style="fill-rule:nonzero;"/>
        <path d="M148.1,62.9L148.1,65.4L149.9,65.4L149.9,67.1L148.1,67.1L148.1,72.9C148.1,73.3 148.2,73.6 148.3,73.8C148.5,74 148.7,74.1 149.1,74.1C149.4,74.1 149.6,74.1 149.9,74L149.9,75.8C149.4,75.9 148.9,76 148.4,76C146.6,76 145.7,75 145.7,73.1L145.7,67.2L144,67.2L144,65.5L145.7,65.5L145.7,63L148.1,63L148.1,62.9Z" style="fill-rule:nonzero;"/>
        <path d="M151,70.5C151,69.5 151.2,68.6 151.6,67.8C152,67 152.6,66.4 153.3,65.9C154,65.5 154.9,65.2 155.8,65.2C157.2,65.2 158.3,65.6 159.2,66.5C160.1,67.4 160.5,68.6 160.6,70.1L160.6,70.6C160.6,71.6 160.4,72.5 160,73.3C159.6,74.1 159,74.7 158.3,75.2C157.6,75.6 156.7,75.9 155.8,75.9C154.3,75.9 153.2,75.4 152.3,74.4C151.4,73.4 151,72.1 151,70.5ZM153.3,70.7C153.3,71.8 153.5,72.6 154,73.2C154.4,73.8 155.1,74.1 155.8,74.1C156.5,74.1 157.2,73.8 157.6,73.2C158,72.6 158.3,71.7 158.3,70.5C158.3,69.5 158.1,68.6 157.6,68C157.2,67.4 156.5,67.1 155.8,67.1C155,67.1 154.4,67.4 154,68C153.5,68.6 153.3,69.5 153.3,70.7Z" style="fill-rule:nonzero;"/>
        <path d="M168,67.5C167.7,67.4 167.4,67.4 167.1,67.4C166,67.4 165.3,67.8 165,68.6L165,75.7L162.7,75.7L162.7,65.4L164.9,65.4L165,66.6C165.6,65.7 166.3,65.3 167.3,65.3C167.6,65.3 167.9,65.3 168.1,65.4L168,67.5Z" style="fill-rule:nonzero;"/>
        <path d="M175.2,72.9C175.2,72.5 175,72.2 174.7,72C174.4,71.8 173.8,71.6 173,71.4C172.2,71.2 171.6,71 171,70.8C169.8,70.2 169.3,69.4 169.3,68.4C169.3,67.5 169.7,66.8 170.4,66.2C171.2,65.6 172.1,65.3 173.3,65.3C174.5,65.3 175.5,65.6 176.3,66.2C177.1,66.8 177.4,67.6 177.4,68.6L175.1,68.6C175.1,68.2 174.9,67.8 174.6,67.5C174.3,67.2 173.8,67.1 173.3,67.1C172.8,67.1 172.4,67.2 172.1,67.5C171.8,67.7 171.6,68.1 171.6,68.4C171.6,68.8 171.7,69 172,69.2C172.3,69.4 172.9,69.6 173.8,69.8C174.7,70 175.4,70.2 175.9,70.5C176.4,70.8 176.8,71.1 177.1,71.5C177.4,71.9 177.5,72.4 177.5,72.9C177.5,73.8 177.1,74.6 176.3,75.2C175.5,75.8 174.5,76.1 173.3,76.1C172.5,76.1 171.7,75.9 171,75.6C170.3,75.3 169.8,74.9 169.5,74.3C169.2,73.7 168.9,73.2 168.9,72.6L171.2,72.6C171.2,73.1 171.4,73.6 171.8,73.9C172.2,74.2 172.7,74.3 173.3,74.3C173.9,74.3 174.4,74.2 174.7,74C175.1,73.6 175.2,73.3 175.2,72.9Z" style="fill-rule:nonzero;"/>
        <path d="M178.4,59.7L182.3,59.7L182.3,78.8L178.4,78.8L178.4,77L180,77L180,61.5L178.4,61.5L178.4,59.7Z" style="fill-rule:nonzero;"/>
        <g>
            <circle cx="54.4" cy="49.4" r="38.5" style="fill:rgb(153,255,204);"/>
            <circle cx="54.4" cy="43.9" r="1.3"/>
            <path d="M54.5,15.3C36,15.3 21,30.3 21,48.8C21,67.3 36,82.3 54.5,82.3C73,82.3 88,67.2 88,48.8C88,30.3 73,15.3 54.5,15.3ZM52.9,39.1L52.9,17.8L56.1,17.8L56.1,39L57.1,40.1L59.7,42.8C59.6,43 55.9,51.6 55.6,52.5C55.5,52.6 55.1,52.8 54.5,52.8C54,52.8 53.5,52.6 53.5,52.7C53.1,51.8 49.4,43.1 49.3,42.9L51.9,40.1L52.9,39.1ZM50.5,38.1L47.2,41.6L40.7,43.6L33.3,59.8L47.1,74.9L53.1,69.4L43.6,58.8L47.2,50.8L49.7,49.9C50.3,51.4 50.9,52.8 51.3,53.6C51.8,54.7 53.3,55.3 54.6,55.3C55.8,55.3 57.4,54.8 57.9,53.6C58.3,52.7 58.8,51.3 59.5,49.9L62.3,51L65.9,59L56.4,69.6L62.4,75.1L76,59.9L68.6,43.7L62,41.6L58.6,38L58.6,18C73.8,20 85.5,33 85.5,48.7C85.5,65.8 71.6,79.7 54.5,79.7C37.4,79.7 23.5,65.8 23.5,48.7C23.5,33 35.3,20 50.5,18L50.5,38.1ZM48.7,47.5L45.4,48.8L40.7,59.2L49.7,69.2L47.3,71.4L36.3,59.4L42.5,45.7L47.3,44.2C47.6,45 48.1,46.2 48.7,47.5ZM60.3,47.5C60.9,46.2 61.4,45 61.8,44.1L66.9,45.7L73.1,59.4L62.1,71.4L59.7,69.2L68.7,59.2L64,48.8L60.3,47.5Z" style="fill-rule:nonzero;"/>
        </g>
    </g>
</svg>
